PathFileType	4	(X/Y/Z)	C:/Users/opensim2020/Desktop/walking_exp_matlab/subject03_walking12_straight_04.trc	
DataRate	CameraRate	NumFrames	NumMarkers	Units	OrigDataRate	OrigDataStartFrame	OrigNumFrames	
100.00	100.00	4	48	mm	100.00	2171	202	
Frame#	Time	LFHD			RFHD			LBHD			RBHD			C7			T10			CLAV			STRN			RBAK			LSHO			LUPA			LELB			LFRM			LWRA			LWRB			LFIN			RSHO			RUPA			RELB			RFRM			RWRA			RWRB			RFIN			LASI			RASI			LPSI			RPSI			LTHI			LKNE			LTIB			LANK			LHEE			LTOE			RTHI			RKNE			RTIB			RANK			RHEE			RTOE			*39			*40			*41			*42			*43			*44			*45			*46			*47			
		X1	Y1	Z1	X2	Y2	Z2	X3	Y3	Z3	X4	Y4	Z4	X5	Y5	Z5	X6	Y6	Z6	X7	Y7	Z7	X8	Y8	Z8	X9	Y9	Z9	X10	Y10	Z10	X11	Y11	Z11	X12	Y12	Z12	X13	Y13	Z13	X14	Y14	Z14	X15	Y15	Z15	X16	Y16	Z16	X17	Y17	Z17	X18	Y18	Z18	X19	Y19	Z19	X20	Y20	Z20	X21	Y21	Z21	X22	Y22	Z22	X23	Y23	Z23	X24	Y24	Z24	X25	Y25	Z25	X26	Y26	Z26	X27	Y27	Z27	X28	Y28	Z28	X29	Y29	Z29	X30	Y30	Z30	X31	Y31	Z31	X32	Y32	Z32	X33	Y33	Z33	X34	Y34	Z34	X35	Y35	Z35	X36	Y36	Z36	X37	Y37	Z37	X38	Y38	Z38	X39	Y39	Z39	X40	Y40	Z40	X41	Y41	Z41	X42	Y42	Z42	X43	Y43	Z43	X44	Y44	Z44	X45	Y45	Z45	X46	Y46	Z46	X47	Y47	Z47	X48	Y48	Z48	

26	0.250	1434.53320	1197.91101	1613.69446	1303.31323	1219.55774	1610.94482	1453.53760	1326.12537	1573.95544	1323.28149	1342.31433	1570.54028	1397.48230	1366.78101	1406.55212	1406.42529	1393.62036	1091.85437	1388.91626	1244.69006	1332.47827	1397.77808	1193.53516	1169.75366	1311.95581	1417.40344	1223.88000	1543.83337	1278.02673	1378.10803	1640.36829	1261.40723	1197.84631	1669.00146	1225.94446	1089.90332	1662.98914	1120.41760	1027.85327	1621.24451	1019.97168	979.98706	1667.75439	1032.96936	955.00800	1655.41748	953.89288	938.53436	1233.39929	1302.58557	1353.44690	1157.67505	1330.32874	1134.07288	1142.16455	1333.17761	1021.13055	1133.28418	1349.37634	884.89502	1162.25574	1344.07739	782.22998	1118.68616	1376.72815	788.25159	1130.37524	1383.09399	711.41687	1524.08533	1230.26379	924.78375	1286.25330	1219.91785	937.78577	1467.21692	1390.32373	947.11401	1319.69580	1383.31006	961.52887	1580.46045	1305.42078	621.64172	1567.26367	1317.57727	441.71335	1560.07263	1485.25061	335.10086	1518.81079	1648.93494	214.06792	1472.07849	1684.95947	237.33276	1508.13867	1635.40625	63.49471	1248.03491	1215.42554	646.62903	1300.93127	1156.17419	481.83005	1294.67249	1178.13562	287.07401	1341.02063	1196.24390	72.82292	1387.54614	1246.62769	40.74342	1368.52686	1059.02100	37.90054				1395.75647	1286.30737	1673.18982																					 
27	0.260	1436.14978	1184.42310	1615.11365	1304.95251	1205.87000	1612.96533	1454.40820	1312.42200	1575.09448	1324.48926	1328.63232	1572.42944	1397.84595	1353.10132	1408.57190	1406.29639	1380.00427	1093.52869	1389.97095	1231.13623	1334.06726	1399.04285	1179.96277	1171.27600	1311.25574	1403.29578	1225.70142	1545.13818	1265.29895	1379.03467	1640.36047	1251.28821	1197.49365	1668.21338	1217.37109	1088.80884	1661.74756	1112.67493	1025.49976	1619.76160	1012.80121	976.63989	1666.35156	1026.04895	951.78741	1653.54431	947.19031	934.13849	1233.96375	1287.69434	1354.76013	1158.20337	1313.77698	1135.33032	1142.93262	1315.91052	1022.10712	1134.48621	1330.60938	885.74048	1164.63135	1325.05298	782.89862	1120.21533	1356.67358	788.73529	1132.05237	1362.36511	712.06903	1524.92517	1217.43604	925.77716	1286.52429	1206.38672	939.27362	1467.97400	1377.42920	947.46515	1320.38062	1369.78137	962.94006	1580.87756	1285.58142	621.85010	1567.62195	1290.07227	441.36801	1560.14185	1457.85840	336.61014	1517.30408	1624.26843	219.39430	1471.73511	1661.87561	242.77904	1505.82019	1608.89368	69.04243	1248.53735	1205.05823	647.60162	1300.98499	1149.45764	481.21341	1294.84497	1174.63135	286.87500	1341.06030	1196.22839	72.86375	1387.47681	1246.61743	40.77948	1368.50049	1058.96350	37.87437				1396.56091	1272.78015	1674.39917																					 
28	0.270	1437.84167	1170.90417	1616.52112	1306.57483	1192.17822	1614.98596	1456.10278	1299.18860	1576.55420	1325.68274	1314.83728	1574.27722	1397.97839	1339.26379	1410.57239	1406.36841	1366.57227	1095.18323	1391.12708	1217.57910	1335.68213	1400.34082	1166.56104	1172.74902	1310.45020	1389.29968	1227.65149	1546.31348	1252.65698	1380.00037	1640.39648	1241.28430	1197.40332	1667.27405	1208.88489	1087.66809	1660.49084	1105.23584	1022.84015	1618.45081	1005.96820	972.44873	1665.09363	1019.70941	947.85919	1652.01855	941.15118	928.63367	1234.74219	1273.17859	1356.58777	1158.80066	1296.85474	1136.48169	1143.81299	1298.33740	1023.29193	1135.68604	1311.49255	886.79199	1166.11145	1303.38635	784.57043	1121.72961	1336.16296	789.36371	1133.73389	1340.84180	712.73218	1526.01758	1204.93750	926.97314	1287.03333	1192.99048	940.75031	1468.61389	1364.56665	948.12817	1321.06055	1356.43481	964.55286	1581.07263	1265.67969	622.85419	1567.67200	1262.75708	442.13165	1559.54297	1430.53662	338.68970	1515.68701	1598.48950	223.60904	1471.17212	1638.01770	245.24339	1503.45374	1578.34229	73.03706	1249.22888	1195.48901	648.14935	1300.90271	1143.35645	480.40302	1294.64465	1171.27539	286.63989	1341.07361	1196.31360	72.89458	1387.28772	1246.72388	40.81010	1368.46313	1058.99939	37.87028				1398.39673	1259.02136	1675.97144																					 
29	0.280	1439.50293	1157.34314	1617.93530	1308.18921	1178.31567	1616.97827	1457.32849	1285.63586	1577.89917	1327.01318	1301.20056	1576.26794	1398.23206	1325.64319	1412.48877	1406.53430	1353.28479	1096.90833	1392.34204	1204.09119	1337.36780	1401.79553	1153.26013	1174.36926	1309.68628	1375.18115	1229.33838	1547.54187	1240.14526	1381.06909	1640.23120	1231.32800	1197.35498	1666.23523	1200.47424	1086.67737	1659.11926	1097.82898	1019.82330	1617.34473	999.51892	967.57843	1664.10095	1013.89569	943.27570	1650.83472	935.78571	922.10077	1235.45251	1258.17407	1358.00293	1159.51111	1279.74402	1137.81042	1144.90686	1280.36475	1024.52161	1137.09863	1291.84045	887.83978	1167.97461	1283.76440	785.77277	1123.27551	1315.11121	790.14740	1135.34656	1318.52454	713.54022	1527.01465	1192.40527	928.65552	1287.83533	1179.55859	942.08771	1469.03638	1351.63562	949.28589	1321.49219	1343.08069	966.36523	1581.26074	1245.12683	624.45996	1567.45654	1235.52319	443.88824	1558.22986	1402.36890	340.30112	1513.88257	1571.11890	225.71448	1470.52588	1612.51099	245.35323	1500.80493	1545.30933	75.45321	1249.79993	1186.19080	648.63666	1300.94189	1137.59558	479.66907	1294.59302	1168.53113	286.34866	1341.00330	1196.53552	73.05344	1387.10632	1246.87500	40.83942	1368.39026	1059.09644	37.88906				1400.19812	1245.28601	1677.59094																					 
